<?xml version="1.0" encoding="UTF-8"?> <svg xmlns="http://www.w3.org/2000/svg" width="16" height="18" viewBox="0 0 16 18" fill="none"><path d="M12.4394 2.82094C11.7796 2.06453 11.383 1.07824 11.383 0H10.5562C10.7691 1.17854 11.4706 2.18992 12.4394 2.82094Z" fill="black"></path><path d="M4.78918 8.91426C3.35691 8.91426 2.19189 10.0803 2.19189 11.5137C2.19189 12.5126 2.75979 13.3818 3.58657 13.8164C3.27757 13.3902 3.09384 12.8678 3.09384 12.2994C3.09384 10.866 4.25886 9.69995 5.69115 9.69995C5.95838 9.69995 6.21725 9.74586 6.45947 9.82109V6.66169C6.20889 6.62822 5.9542 6.6073 5.69115 6.6073C5.6452 6.6073 5.60344 6.61148 5.5575 6.61148V9.0354C5.31114 8.96016 5.05641 8.91426 4.78918 8.91426Z" fill="black"></path><path d="M14.7815 4.20856V6.61159C13.178 6.61159 11.6915 6.09758 10.4805 5.22828V11.518C10.4805 14.6566 7.92919 17.2143 4.78905 17.2143C3.5781 17.2143 2.45067 16.8298 1.52783 16.182C2.56758 17.2978 4.04995 18 5.69102 18C8.82694 18 11.3825 15.4464 11.3825 12.3037V6.01397C12.5934 6.88327 14.0799 7.39725 15.6834 7.39725V4.30472C15.3702 4.30472 15.0696 4.27125 14.7815 4.20856Z" fill="black"></path><path d="M10.481 11.5178V5.22816C11.692 6.09746 13.1785 6.61147 14.7819 6.61147V4.20844C13.8549 4.01206 13.0408 3.51054 12.4395 2.82094C11.4708 2.18992 10.7733 1.17854 10.552 0H8.28876L8.28453 12.3997C8.23449 13.7872 7.09033 14.9031 5.69149 14.9031C4.82292 14.9031 4.05876 14.4726 3.58274 13.8207C2.75595 13.3818 2.18806 12.5167 2.18806 11.5178C2.18806 10.0844 3.35308 8.91839 4.78534 8.91839C5.05258 8.91839 5.31147 8.96438 5.55367 9.03962V6.61566C2.48036 6.68253 0 9.20675 0 12.3035C0 13.7997 0.580424 15.1622 1.5283 16.1819C2.45113 16.8297 3.57856 17.2142 4.78951 17.2142C7.92543 17.2142 10.481 14.6565 10.481 11.5178Z" fill="black"></path></svg> 